<svg width="713" height="800" viewBox="0 0 713 800" fill="none" xmlns="http://www.w3.org/2000/svg">
    <path d="M70.757 156.797C126.39 101.094 216.902 101.094 272.536 156.797L393.556 277.969C449.19 333.672 449.19 424.297 393.556 480L364.998 508.594L324.658 468.203L353.216 439.609C386.612 406.172 386.612 351.797 353.216 318.359L232.117 197.109C198.722 163.672 144.415 163.672 111.019 197.109C77.6234 230.547 77.6234 284.922 111.019 318.359L166.653 374.062L126.312 414.453L70.6789 358.75C15.1234 303.125 15.1234 212.5 70.757 156.797Z" fill="#0F1F3C" fill-opacity="0.1"/>
    <path d="M262.158 291.328L302.576 331.719L274.018 360.313C240.622 393.75 240.622 448.125 274.018 481.563L395.117 602.734C428.512 636.172 482.819 636.172 516.215 602.734C549.611 569.297 549.611 514.922 516.215 481.484L470.647 435.859L510.909 395.469L556.477 441.094C612.111 496.797 612.111 587.422 556.477 643.125C528.699 670.938 492.105 684.922 455.588 684.922C419.071 684.922 382.476 671.016 354.698 643.125L233.6 521.875C177.966 466.172 177.966 375.547 233.6 319.844L262.158 291.328Z" fill="#0F1F3C" fill-opacity="0.1"/>
</svg>
