<svg width="269" height="269" viewBox="0 0 269 269" fill="none" xmlns="http://www.w3.org/2000/svg">
    <path d="M256.233 120.527L242.205 117.443C239.56 116.863 237.529 114.784 236.968 112.133C234.748 101.641 230.963 91.7303 225.854 82.6581C224.605 80.4408 224.684 77.7179 226.057 75.5744L234.635 62.1817C236.381 59.4562 235.995 55.8832 233.706 53.5942L219.471 39.3583C217.182 37.0693 213.61 36.683 210.884 38.4281L198.91 46.0949C196.633 47.5527 193.72 47.5333 191.448 46.064C182.645 40.3643 172.931 35.9549 162.572 33.0979C160.113 32.4201 158.233 30.4368 157.687 27.9452L154.301 12.4426C153.608 9.2805 150.807 6.97214 147.57 6.97214H127.436C124.199 6.97214 121.399 9.2805 120.707 12.4426L117.639 26.4634C117.063 29.0947 115.002 31.1523 112.371 31.7244C101.91 34.0024 92.0356 37.8523 83.0016 43.0051C80.7781 44.2718 78.04 44.2095 75.8839 42.8292L62.3625 34.1705C59.637 32.4264 56.0629 32.8137 53.775 35.1017L39.538 49.3392C37.249 51.6271 36.8627 55.2017 38.6079 57.9272L46.528 70.2955C47.9784 72.5599 47.9674 75.4556 46.5196 77.7231C40.9837 86.3944 36.6921 95.9351 33.8948 106.096C33.217 108.558 31.2347 110.441 28.74 110.989L12.6359 114.509C9.47384 115.203 7.18066 118.004 7.18066 121.24V141.373C7.18066 144.61 9.47384 147.41 12.6359 148.104L27.3592 151.326C29.9837 151.902 32.0335 153.954 32.6134 156.577C34.8658 166.759 38.6115 176.383 43.5946 185.209C44.8488 187.431 44.7818 190.157 43.4057 192.306L34.3518 206.449C32.6056 209.173 32.9935 212.746 35.2825 215.035L49.5194 229.272C51.8084 231.56 55.3809 231.948 58.1064 230.201L70.9516 221.977C73.2212 220.523 76.1216 220.539 78.3922 221.994C86.9075 227.448 96.265 231.701 106.228 234.516C108.671 235.206 110.535 237.18 111.078 239.658L114.689 256.04C115.383 259.201 118.183 261.363 121.419 261.363H141.553C144.79 261.363 147.589 259.201 148.283 256.04L151.523 241.308C152.101 238.67 154.173 236.647 156.813 236.078C167.027 233.881 176.688 230.204 185.554 225.263C187.768 224.029 190.479 224.111 192.614 225.479L206.627 234.454C209.353 236.201 212.926 235.814 215.214 233.526L229.452 219.289C231.738 217.001 232.126 213.427 230.382 210.702L222.409 198.255C220.949 195.973 220.972 193.053 222.447 190.78C228.065 182.133 232.436 172.6 235.31 162.44C236.002 160 237.977 158.14 240.452 157.599L256.232 154.121C259.394 153.428 261.569 150.627 261.569 147.391V127.257C261.571 124.021 259.395 121.221 256.233 120.527ZM133.803 213.775C90.7365 213.775 55.8221 178.861 55.8221 135.794C55.8221 92.7264 90.7359 57.8126 133.803 57.8126C176.871 57.8126 211.783 92.7264 211.783 135.794C211.783 178.861 176.871 213.775 133.803 213.775Z" fill="black" fill-opacity="0.06"/>
    <path d="M103.606 124.829C110.401 124.829 115.908 119.32 115.908 112.526C115.908 105.731 110.401 100.223 103.606 100.223C96.8114 100.223 91.3027 105.731 91.3027 112.526C91.3027 119.32 96.8109 124.829 103.606 124.829Z" fill="black" fill-opacity="0.06"/>
    <path d="M166.144 124.829C172.939 124.829 178.447 119.32 178.447 112.526C178.447 105.731 172.94 100.223 166.144 100.223C159.35 100.223 153.841 105.731 153.841 112.526C153.841 119.32 159.35 124.829 166.144 124.829Z" fill="black" fill-opacity="0.06"/>
    <path d="M134.828 132.758C141.623 132.758 147.132 127.249 147.132 120.454C147.132 113.659 141.623 108.15 134.828 108.15C128.032 108.15 122.524 113.659 122.524 120.454C122.524 127.249 128.032 132.758 134.828 132.758Z" fill="black" fill-opacity="0.06"/>
    <path d="M134.375 137.635C121.222 137.635 110.821 148.298 110.821 161.451V166.341C110.821 167.292 111.666 168.191 112.62 168.191H156.801C157.753 168.191 157.93 167.292 157.93 166.341V161.451C157.93 148.298 147.529 137.635 134.375 137.635Z" fill="black" fill-opacity="0.06"/>
    <path d="M119.248 135.808C115.054 132.079 109.148 129.758 103.099 129.758C89.943 129.758 78.8911 140.377 78.8911 153.52V158.407C78.8911 159.362 80.4447 160.339 81.3994 160.339H105.039C105.561 149.348 111.1 141.039 119.248 135.808Z" fill="black" fill-opacity="0.06"/>
    <path d="M166.04 129.707C159.963 129.707 154.436 132.101 150.237 135.843C158.351 141.071 163.859 149.348 164.381 160.34H188.113C189.067 160.34 189.86 159.363 189.86 158.408V153.521C189.86 146.949 187.189 140.989 182.88 136.691C178.569 132.368 172.622 129.707 166.04 129.707Z" fill="black" fill-opacity="0.06"/>
</svg>
