<svg width="693" height="681" viewBox="0 0 693 681" fill="none" xmlns="http://www.w3.org/2000/svg">
    <path d="M339.602 65.0893C347.649 65.0893 354.172 58.6821 354.172 50.7784C354.172 42.8747 347.649 36.4675 339.602 36.4675C331.555 36.4675 325.032 42.8747 325.032 50.7784C325.032 58.6821 331.555 65.0893 339.602 65.0893Z" fill="black" fill-opacity="0.07"/>
    <path d="M644.301 201.242C619.404 201.242 598.78 220.996 595.474 242.031H564.379C559.528 242.031 554.869 247.819 554.869 252.615V299.528H493.861C480.446 261.664 452.548 229.136 416.514 210.181C412.638 208.106 407.634 206.188 403.555 204.451C386.202 197.043 369.264 192.504 346.42 191.46V113.016H358.654C363.537 113.016 364.98 111.099 364.98 106.3V89.6752C364.98 89.2012 366.557 88.695 367.133 88.2869C380.176 79.2292 388.611 64.4639 388.611 48.7829C388.611 35.0245 382.917 21.8677 372.507 12.6865C362.066 3.5026 348.187 -0.848877 334.178 0.665655C311.373 3.12537 292.761 21.2044 290.386 43.6377C288.554 61.1179 296.126 78.2531 310.712 88.3486C311.222 88.6964 310.726 89.2026 310.726 89.6766V106.301C310.726 111.1 316.316 113.017 321.199 113.017H330.715V191.469C262.183 195.018 206.38 239.228 185.327 299.529H137.971V252.616C137.971 247.82 133.786 242.033 128.903 242.033H97.9355C94.6289 220.998 74.001 201.243 49.1056 201.243C21.9286 201.243 0.171387 223.428 0.171387 250.151C0.171387 266.401 5.1913 281.802 22.3241 290.766V308.149C22.3241 312.942 25.5294 314.953 30.4122 314.953H67.8374C72.7203 314.953 76.578 312.942 76.578 308.149V290.766C86.5722 283.823 94.4675 271.481 97.1974 261.664H117.982V308.149C117.982 312.942 124.02 314.953 128.903 314.953H180.366C178.553 324.77 177.236 332.295 176.722 340.797L176.518 341.727V342.009C176.518 345.107 176.518 360.127 176.518 360.127L147.581 438.536C144.719 446.329 150.736 453.785 159.174 453.785H176.719L176.591 544.22C176.591 561.801 191.099 577.192 208.996 577.192H269.862H315.976C320.856 577.192 324.811 580.111 324.811 584.905C324.811 589.695 320.856 592.617 315.976 592.617H269.319V658.1C269.319 671.143 280.294 680.965 293.569 680.965H442.673C455.95 680.965 464.919 671.143 464.919 658.1V491.562C464.919 468.624 472.038 446.227 482.95 425.942C494.349 404.751 501.505 380.746 502.127 355.255C502.156 353.976 502.405 352.669 502.405 351.364C502.405 348.861 502.518 345.422 502.404 342.951C501.969 333.704 500.786 324.771 498.82 314.955H564.376C569.259 314.955 570.571 312.944 570.571 308.151V261.666H596.211C598.94 271.482 607.692 283.824 616.259 290.767V308.151C616.259 312.944 620.689 314.955 625.57 314.955H662.996C667.878 314.955 670.513 312.944 670.513 308.151V290.767C683.362 281.802 692.952 266.403 692.952 250.152C692.954 223.427 671.478 201.242 644.301 201.242ZM322.053 74.1471C312.544 67.5869 307.256 56.8253 308.476 45.4341C309.988 31.0797 321.68 19.4991 336.264 17.8906C345.45 16.9104 354.22 19.6576 361.033 25.6176C367.714 31.52 371.568 39.9425 371.568 48.7815C371.568 58.8138 366.285 68.3105 357.9 74.1162C352.663 77.7749 349.275 83.582 349.275 89.6738V97.59H330.715V89.6752C330.713 83.5834 327.254 77.7763 322.053 74.1471ZM78.821 261.291C76.1882 268.424 69.6821 274.482 62.5491 278.145C59.6265 279.656 56.5897 282.622 56.5897 285.841V299.528H38.0292V285.841C38.0292 282.622 36.8056 279.656 33.883 278.145C23.3792 272.743 17.1629 262.207 17.1629 250.626C17.1629 233.494 31.513 219.548 48.9556 219.548C64.0554 219.548 76.8193 229.991 79.9361 243.939C80.4158 246.086 80.7127 248.327 80.7127 250.628C80.7113 254.351 80.076 257.948 78.821 261.291ZM448.827 316.231C446 342.644 423.256 362.633 395.661 362.633H277.767C250.141 362.633 227.428 342.665 224.601 316.253C224.381 314.446 224.286 312.914 224.283 311.046C224.286 307.02 224.763 302.332 225.629 299.528H225.621C225.623 299.528 225.626 299.469 225.629 299.455C231.092 276.103 252.324 258.726 277.767 258.726C282.779 258.726 287.631 259.456 292.257 260.75C298.618 244.376 310.726 231.911 330.715 228.155V228.161C333.57 227.342 338.227 226.576 342.145 226.576C344.267 226.576 346.416 226.606 348.471 226.606H348.457C367.86 229.41 384.072 241.567 391.429 258.609C392.843 258.48 394.255 258.561 395.668 258.561C421.077 258.561 442.339 276.036 447.769 299.385C448.667 303.161 449.147 307.139 449.15 311.163C449.145 313.035 449.047 314.42 448.827 316.231ZM659.241 278.145C656.318 279.656 654.809 282.622 654.809 285.841V299.528H631.965V285.841C631.965 282.622 631.354 279.656 628.429 278.145C627.692 277.765 627.565 277.355 626.855 276.88C626.437 276.658 626.356 276.406 625.972 276.09C624.335 275.019 622.978 273.786 621.628 272.398C621.243 272.05 620.965 271.671 620.611 271.294C620.452 271.136 620.329 270.949 620.201 270.757C619.688 270.191 619.223 269.623 618.774 269.024C618.71 268.928 618.654 268.799 618.557 268.708C618.011 267.95 617.505 267.191 617.053 266.401C616.54 265.612 616.093 264.763 615.709 263.909C615.291 263.061 614.905 262.176 614.585 261.291C614.296 260.565 614.073 259.809 613.846 259.05C613.62 258.294 613.43 257.505 613.269 256.717C613.205 256.338 613.108 255.961 613.076 255.58C612.945 254.853 612.851 254.128 612.786 253.402C612.692 252.487 612.658 251.572 612.658 250.625C612.658 249.491 612.722 248.355 612.851 247.217C612.915 246.651 612.979 246.114 613.076 245.577C613.171 244.976 613.299 244.379 613.43 243.78C613.589 243.054 613.782 242.358 614.007 241.665C614.071 241.476 614.136 241.255 614.233 241.033C614.391 240.401 614.615 239.803 614.874 239.203C615.164 238.51 615.451 237.847 615.805 237.154C615.966 236.806 616.156 236.425 616.352 236.08C616.641 235.546 616.928 235.039 617.25 234.532C617.509 234.089 617.762 233.681 618.086 233.27C619.368 231.376 620.88 229.643 622.551 228.096C623.066 227.593 623.61 227.119 624.187 226.645C624.251 226.582 624.318 226.519 624.413 226.489C624.989 226.015 625.57 225.575 626.18 225.196C627.561 224.216 629.038 223.363 630.58 222.638C630.966 222.449 631.384 222.258 631.801 222.101C632.378 221.819 632.956 221.598 633.536 221.409C634.372 221.093 635.239 220.842 636.104 220.619C636.941 220.398 637.808 220.208 638.676 220.053C638.74 220.02 638.773 220.02 638.837 220.02C639.704 219.862 640.602 219.736 641.503 219.675C642.433 219.58 643.366 219.546 644.297 219.546C661.742 219.546 676.101 233.493 676.101 250.625C676.105 262.207 669.745 272.743 659.241 278.145Z" fill="black" fill-opacity="0.07"/>
    <path d="M643.972 266.923C652.019 266.923 658.542 260.516 658.542 252.612C658.542 244.708 652.019 238.301 643.972 238.301C635.926 238.301 629.402 244.708 629.402 252.612C629.402 260.516 635.926 266.923 643.972 266.923Z" fill="black" fill-opacity="0.07"/>
    <path d="M48.7985 266.923C56.8454 266.923 63.3686 260.516 63.3686 252.612C63.3686 244.708 56.8454 238.301 48.7985 238.301C40.7517 238.301 34.2285 244.708 34.2285 252.612C34.2285 260.516 40.7517 266.923 48.7985 266.923Z" fill="black" fill-opacity="0.07"/>
    <path d="M67.3263 327.574H29.9039C25.0239 327.574 21.0691 332.6 21.0691 337.391C21.0691 342.181 25.0239 347.207 29.9039 347.207H67.3263C72.2063 347.207 76.1611 342.181 76.1611 337.391C76.1611 332.6 72.2063 327.574 67.3263 327.574Z" fill="black" fill-opacity="0.07"/>
    <path d="M662.686 327.574H625.261C620.383 327.574 616.426 332.6 616.426 337.391C616.426 342.181 620.382 347.207 625.261 347.207H662.686C667.563 347.207 671.521 342.181 671.521 337.391C671.521 332.6 667.563 327.574 662.686 327.574Z" fill="black" fill-opacity="0.07"/>
    <path d="M365.527 289.711H342.815L356.604 254.352C356.897 253.591 356.794 251.76 356.326 251.088C355.854 250.422 355.082 249.043 354.254 249.043H331.995C330.905 249.043 329.945 250.723 329.605 251.74L310.838 308.324C310.587 309.069 310.718 310.195 311.192 310.835C311.663 311.476 312.424 312.15 313.228 312.15H335.381L324.053 343.581C323.556 344.954 324.129 346.357 325.442 347.038C325.889 347.265 326.36 347.367 326.823 347.367C327.718 347.367 328.579 346.938 329.154 346.155L367.569 293.704C368.121 292.945 368.196 291.924 367.765 291.095C367.333 290.266 366.475 289.711 365.527 289.711Z" fill="black" fill-opacity="0.07"/>
</svg>
