<svg width="625" height="648" viewBox="0 0 625 648" fill="none" xmlns="http://www.w3.org/2000/svg">
    <path d="M310.949 36.4435C315.62 36.4435 320.52 32.7525 320.52 28.2009V8.60809C320.52 4.05787 315.62 0.365479 310.949 0.365479C306.279 0.365479 301.379 4.05654 301.379 8.60809V28.2009C301.379 32.7512 306.279 36.4435 310.949 36.4435Z" fill="black" fill-opacity="0.07"/>
    <path d="M379.266 62.4595C381.432 62.4595 383.595 61.6536 385.248 60.0445L399.469 46.1887C402.772 42.9678 402.772 37.7489 399.469 34.5334C396.163 31.3152 390.812 31.3152 387.506 34.5334L373.285 48.3892C369.982 51.6074 369.982 56.8263 373.285 60.0445C374.938 61.6536 377.101 62.4595 379.266 62.4595Z" fill="black" fill-opacity="0.07"/>
    <path d="M238.533 62.3942C240.186 64.0046 242.349 64.8092 244.515 64.8092C246.68 64.8092 248.843 64.0046 250.496 62.3942C253.802 59.1787 253.802 53.9598 250.496 50.7389L236.275 36.8858C232.972 33.6649 227.618 33.6649 224.315 36.8858C221.009 40.1013 221.009 45.3202 224.315 48.5384L238.533 62.3942Z" fill="black" fill-opacity="0.07"/>
    <path d="M198.591 151.432C197.138 144.265 196.398 136.807 196.398 129.266C196.398 120.914 197.339 112.597 199.191 104.545C200.214 100.107 197.348 95.6963 192.787 94.6999C188.263 93.7196 183.705 96.4928 182.68 100.939C180.556 110.173 179.478 119.705 179.478 129.266C179.478 137.878 180.324 146.411 181.996 154.632C182.792 158.558 186.327 161.276 190.285 161.276C190.827 161.276 191.381 161.224 191.936 161.115C196.52 160.236 199.499 155.897 198.591 151.432Z" fill="black" fill-opacity="0.07"/>
    <path d="M426.723 175.576C422.546 173.547 417.46 175.212 415.382 179.288C395.712 217.852 356.058 241.815 311.893 241.828C267.726 241.815 228.074 217.852 208.406 179.288C206.324 175.211 201.237 173.546 197.065 175.576C192.88 177.6 191.174 182.134 193.252 186.214C215.792 230.406 261.216 257.494 311.827 257.494C311.835 257.494 311.846 257.494 311.854 257.494C311.879 257.494 311.908 257.494 311.932 257.494C311.943 257.494 311.951 257.494 311.96 257.494C362.57 257.494 407.999 230.406 430.536 186.214C432.613 182.134 430.906 177.6 426.723 175.576Z" fill="black" fill-opacity="0.07"/>
    <path d="M441.743 154.645C443.443 146.339 444.306 137.802 444.306 129.266C444.306 119.685 443.216 110.118 441.075 100.835C440.05 96.3916 435.519 93.5943 430.965 94.604C426.41 95.6004 423.544 100.011 424.569 104.452C426.438 112.55 427.387 120.9 427.387 129.266C427.387 136.718 426.631 144.173 425.146 151.419C424.233 155.884 427.208 160.223 431.789 161.115C432.347 161.224 432.902 161.276 433.453 161.276C437.403 161.278 440.936 158.563 441.743 154.645Z" fill="black" fill-opacity="0.07"/>
    <path d="M393.624 286.799H228.891C223.817 286.799 217.98 292.641 217.98 297.618V300.615V637.744C217.98 642.69 223.818 646.447 228.891 646.447H393.623C398.697 646.447 402.549 642.69 402.549 637.744V300.615V297.618C402.551 292.641 398.698 286.799 393.624 286.799Z" fill="black" fill-opacity="0.07"/>
    <path d="M247.159 121.928L277.344 143.817C279.582 145.401 280.516 148.469 279.664 151.032L268.133 185.735C266.224 191.464 272.952 196.294 277.955 192.753L308.14 171.416C310.378 169.832 313.406 169.848 315.643 171.432L345.827 192.809C350.829 196.35 357.558 191.588 355.647 185.86L344.118 151.29C343.264 148.727 344.202 145.922 346.436 144.339L376.623 121.927C381.627 118.386 379.053 109.637 372.872 109.637H335.56C332.797 109.637 330.345 108.945 329.491 106.382L317.96 72.3311C316.051 66.5994 307.733 66.8618 305.821 72.5909L294.293 106.251C293.435 108.814 290.984 109.637 288.221 109.637H250.906C244.727 109.639 242.158 118.387 247.159 121.928Z" fill="black" fill-opacity="0.07"/>
    <path d="M185.168 470.286C185.168 465.32 181.036 461.295 175.939 461.295H9.82617C4.7293 461.295 0.597656 465.32 0.597656 470.286V638.788C0.597656 643.754 4.7293 647.779 9.82617 647.779H175.939C181.036 647.779 185.168 643.754 185.168 638.788V470.286Z" fill="black" fill-opacity="0.07"/>
    <path d="M74.6445 361.92C76.065 362.927 76.6583 364.707 76.1156 366.333L72.1289 378.283C70.9189 381.918 75.1859 384.938 78.3591 382.693L88.7949 375.307C90.2154 374.303 92.1349 374.303 93.5527 375.307L103.988 382.693C107.16 384.939 111.427 381.918 110.219 378.283L106.232 366.333C105.691 364.707 106.283 362.927 107.7 361.92L118.139 354.205C121.311 351.964 119.68 346.74 115.76 346.74H102.859C101.108 346.74 99.5505 345.97 99.0119 344.347L95.0251 332.561C93.8152 328.926 88.5365 329.007 87.3265 332.642L83.3398 344.304C82.7984 345.93 81.2412 346.74 79.4871 346.74H66.5917C62.672 346.74 61.0396 351.964 64.2128 354.205L74.6445 361.92Z" fill="black" fill-opacity="0.07"/>
    <path d="M91.1738 431.994C132.369 431.994 165.881 399.343 165.881 359.211C165.881 319.078 132.369 286.426 91.1738 286.426C49.9818 286.426 16.4666 319.079 16.4666 359.212C16.4666 399.345 49.9818 431.994 91.1738 431.994ZM91.1738 302.91C123.089 302.91 148.962 328.117 148.962 359.212C148.962 390.307 123.089 415.512 91.1738 415.512C59.2609 415.512 33.3855 390.307 33.3855 359.212C33.3855 328.117 59.2609 302.91 91.1738 302.91Z" fill="black" fill-opacity="0.07"/>
    <path d="M624.035 470.286C624.035 465.32 619.904 461.295 614.807 461.295H448.693C443.596 461.295 439.465 465.32 439.465 470.286V638.788C439.465 643.754 443.596 647.779 448.693 647.779H614.807C619.904 647.779 624.035 643.754 624.035 638.788V470.286Z" fill="black" fill-opacity="0.07"/>
    <path d="M514.809 361.92C516.23 362.927 516.823 364.707 516.28 366.333L512.296 378.283C511.084 381.918 515.353 384.938 518.527 382.693L528.96 375.307C530.38 374.303 532.3 374.303 533.717 375.307L544.153 382.693C547.325 384.939 551.595 381.918 550.386 378.283L546.399 366.333C545.855 364.707 546.45 362.927 547.868 361.92L558.304 354.205C561.475 351.964 559.844 346.74 555.925 346.74H543.024C541.27 346.74 539.718 345.97 539.177 344.347L535.19 332.561C533.98 328.926 528.701 329.007 527.491 332.642L523.505 344.304C522.963 345.93 521.409 346.74 519.655 346.74H506.757C502.837 346.74 501.204 351.964 504.378 354.205L514.809 361.92Z" fill="black" fill-opacity="0.07"/>
    <path d="M531.339 431.994C572.533 431.994 606.049 399.343 606.049 359.211C606.049 319.078 572.533 286.424 531.339 286.424C490.147 286.424 456.631 319.078 456.631 359.211C456.631 399.343 490.147 431.994 531.339 431.994ZM531.339 302.91C563.254 302.91 589.13 328.117 589.13 359.212C589.13 390.307 563.254 415.512 531.339 415.512C499.426 415.512 473.55 390.307 473.55 359.212C473.55 328.117 499.426 302.91 531.339 302.91Z" fill="black" fill-opacity="0.07"/>
</svg>
