<svg width="545" height="546" viewBox="0 0 545 546" fill="none" xmlns="http://www.w3.org/2000/svg">
<path d="M270.02 352.581L117.513 196.27C73.6793 157.73 68.2208 89.9118 106.926 45.9137C145.466 2.07952 213.448 -3.21294 257.283 35.3267L272.5 48.5599L287.717 35.3267C332.378 -3.37899 399.534 2.07952 438.074 45.9137C476.779 90.5739 471.321 157.73 427.486 196.27L270.02 352.581ZM351.855 438.714C351.855 419.788 359.149 400.86 373.542 386.27L461.079 298.734C470.346 289.467 485.329 289.467 494.594 298.734C503.861 308.001 503.861 322.984 494.594 332.249L424.014 402.829C420.859 405.588 420.859 410.519 424.014 413.672C427.169 416.827 432.098 416.827 435.253 413.672L505.439 343.486C513.128 336.192 517.071 326.137 517.071 315.687C517.071 305.236 512.734 295.183 505.439 287.887C502.284 284.338 497.749 281.381 493.412 279.41V179.852C493.412 166.642 503.861 155.997 516.873 155.997C530.083 155.997 540.729 166.84 540.729 179.852V341.91C541.123 361.232 533.83 382.13 519.042 397.113L458.121 458.034C450.432 465.723 446.489 475.778 446.489 485.833V536.541H352.053V438.714H351.855ZM192.947 438.714V536.541H98.5109V485.833C98.5109 475.778 94.5681 465.723 86.8785 458.034L25.9577 397.113C11.1704 382.13 3.87672 361.23 4.27057 341.91V179.852C4.27057 166.84 14.9172 155.997 28.125 155.997C41.1368 155.997 51.5855 166.644 51.5855 179.852V279.414C47.2489 281.386 42.7144 284.343 39.5593 287.892C32.2657 295.185 27.927 305.24 27.927 315.691C27.927 326.142 31.8697 336.194 39.5593 343.49L109.745 413.676C112.9 416.831 117.829 416.831 120.984 413.676C124.139 410.521 124.139 405.592 120.984 402.833L50.404 332.254C41.1368 322.987 41.1368 308.003 50.404 298.738C59.6711 289.471 74.6543 289.471 83.9193 298.738L171.456 386.275C185.847 400.864 193.143 419.79 193.143 438.718H192.947V438.714Z" fill="black" fill-opacity="0.1"/>
</svg>
