<svg width="800" height="801" viewBox="0 0 800 801" fill="none" xmlns="http://www.w3.org/2000/svg">
    <g clip-path="url(#clip0_148_105)">
        <path d="M593.633 664.423C567.513 683.763 538.575 698.974 507.833 709.523L507.767 709.656C448.33 730.64 384.079 733.913 322.817 719.079C261.555 704.244 205.919 671.94 162.667 626.089C162.719 623.826 163.342 621.612 164.478 619.654C165.614 617.696 167.227 616.057 169.167 614.889C172.274 612.678 175.539 610.695 178.933 608.956C182.688 606.768 185.528 603.301 186.933 599.189C188.309 595.149 188.083 590.734 186.3 586.856C185.421 585.445 184.475 584.077 183.467 582.756C171.97 570.149 158.479 559.519 143.533 551.289L120.667 536.489C116.741 533.974 113.078 531.071 109.733 527.823C108.303 525.854 107.523 523.489 107.5 521.056C107.522 517.834 107.835 514.621 108.433 511.456C110.003 501.713 109.284 491.739 106.333 482.323C102.521 470.888 97.8296 459.766 92.3 449.056L89.9333 444.156C85.3867 435.452 81.2706 426.53 77.6 417.423C76.1 413.476 74.2714 409.663 72.1334 406.023C72.1 404.023 71.8334 402.089 71.8334 400.089C71.8117 356.841 80.3678 314.017 97.0064 274.097C113.645 234.177 138.036 197.954 168.767 167.523C174.433 167.656 180.1 167.956 186.2 168.723L189.333 168.823C194.113 168.58 198.694 166.83 202.418 163.824C206.143 160.818 208.82 156.71 210.067 152.089C214.267 140.923 216.5 139.823 220.967 139.823C221.8 139.823 222.7 139.956 223.7 140.056C227.338 140.624 230.911 141.55 234.367 142.823C237.029 143.624 239.733 144.281 242.467 144.789L245.6 145.123C247.909 145.143 250.194 144.659 252.296 143.703C254.398 142.747 256.265 141.343 257.767 139.589C265.133 130.789 276.933 114.389 284.767 102.756C287.116 99.2005 288.945 95.3282 290.2 91.2559C309.1 84.5249 328.584 79.5593 348.4 76.4226C346.705 77.818 345.08 79.2976 343.533 80.8559C334.885 87.7963 329.239 97.7987 327.767 108.789C327.666 111.582 328.311 114.35 329.635 116.811C330.959 119.271 332.914 121.335 335.3 122.789C337.725 124.11 340.439 124.808 343.2 124.823C345.916 124.822 348.588 124.134 350.967 122.823C362.129 116.003 374.222 110.838 386.867 107.489C388.882 107.158 390.924 107.013 392.967 107.056L397.967 107.189C400.433 107.223 403.033 107.423 405.8 107.723L411.3 108.056C413.367 108.156 415.133 108.189 416.867 108.189C419.331 108.237 421.795 108.081 424.233 107.723C428.516 107.12 432.459 105.06 435.4 101.889C436.967 99.9893 438.4 98.0559 439.8 96.0893L444.333 88.9226C447.004 84.5716 450.084 80.4863 453.533 76.7226C486.458 82.1314 518.353 92.5759 548.1 107.689C541.345 110.896 535.329 115.47 530.433 121.123C529.092 123.151 527.868 125.254 526.767 127.423L519.833 142.723C518.606 145.17 517.179 147.511 515.567 149.723C514.463 151.269 513.44 152.871 512.5 154.523C511.363 157.901 511.194 161.531 512.013 165.001C512.832 168.471 514.606 171.642 517.133 174.156C523.577 180.666 530.607 186.569 538.133 191.789C540.715 193.619 543.803 194.598 546.967 194.589C549.59 194.602 552.168 193.912 554.433 192.589C557.004 191.198 559.116 189.091 560.512 186.523C561.909 183.955 562.53 181.037 562.3 178.123L562 174.589C561.736 170.939 561.58 167.282 561.533 163.623C561.754 160.956 562.87 158.442 564.7 156.489C565.244 156.066 565.911 155.832 566.6 155.823C567.016 155.828 567.426 155.919 567.805 156.091C568.184 156.263 568.523 156.512 568.8 156.823C569.853 158.515 571.236 159.977 572.867 161.123C573.533 161.656 578.7 164.789 578.7 164.789C582.192 166.556 584.953 169.494 586.5 173.089C587.872 177.074 588.38 181.304 587.989 185.5C587.598 189.696 586.318 193.76 584.233 197.423C580.2 204.589 578.667 207.256 565.133 207.256C560.195 207.258 555.324 206.117 550.9 203.923L548.5 202.856C546.562 202.025 544.476 201.594 542.367 201.589C538.968 201.598 535.649 202.619 532.833 204.523C530.293 206.337 527.876 208.319 525.6 210.456C521.136 214.38 517.011 218.673 513.267 223.289C507.102 230.026 499.612 235.416 491.267 239.123C487.518 240.726 484.551 243.741 483.01 247.516C481.469 251.291 481.477 255.521 483.033 259.289L484.5 262.556C485.956 266.113 486.942 269.844 487.433 273.656C487.6 277.823 485.767 278.256 484.6 278.523C482.528 279.04 480.402 279.309 478.267 279.323C477.252 279.338 476.237 279.271 475.233 279.123C472.25 278.765 469.297 278.186 466.4 277.389L462.867 276.489C459.206 275.641 455.367 276.031 451.953 277.6C448.538 279.168 445.741 281.826 444 285.156C442.701 288.506 441.795 291.996 441.3 295.556C440.4 303.043 440.01 310.583 440.133 318.123C439.936 321.825 441.022 325.481 443.208 328.475C445.394 331.469 448.547 333.617 452.133 334.556L458.233 336.223C459.437 336.639 460.661 336.995 461.9 337.289C463.93 337.915 466.002 338.394 468.1 338.723C468.667 338.789 470.533 338.823 470.967 338.823C476.458 338.797 481.717 336.605 485.6 332.723C488.265 330.493 490.511 327.807 492.233 324.789C493.535 322.542 494.671 320.202 495.633 317.789L496.733 315.389C497.116 314.564 497.585 313.782 498.133 313.056C499.298 311.524 500.79 310.271 502.5 309.389C507.003 307.111 510.804 303.655 513.5 299.389L516.267 295.523C517.464 294.153 518.78 292.893 520.2 291.756C524.297 288.846 529.146 287.18 534.167 286.956C537.128 286.948 540.034 287.755 542.567 289.289C544.7 290.623 547.733 292.823 551.4 295.723C554.253 297.737 557.675 298.788 561.167 298.723C563.665 298.795 566.145 298.269 568.4 297.189C570.578 296.161 572.518 294.691 574.097 292.872C575.675 291.052 576.857 288.924 577.567 286.623C577.812 286.772 578.046 286.939 578.267 287.123C582.154 289.515 585.814 292.26 589.2 295.323C593.033 298.756 596.933 302.823 600.133 306.323C602.475 308.758 604.201 311.718 605.167 314.956C605.815 319.408 607.481 323.651 610.033 327.356C611.582 329.554 613.691 331.297 616.141 332.405C618.591 333.513 621.293 333.945 623.967 333.656C626.725 333.459 629.39 332.575 631.719 331.085C634.047 329.594 635.966 327.545 637.3 325.123C637.967 324.089 638.833 323.323 638.633 323.023C639.409 323.502 640.116 324.085 640.733 324.756C642 326.273 642.993 327.998 643.667 329.856C644.912 332.769 646.999 335.245 649.659 336.967C652.319 338.689 655.432 339.579 658.6 339.523L662.933 339.456C665.104 339.436 667.274 339.536 669.433 339.756C675.867 340.623 680.167 343.089 681.6 346.856C684.246 352.073 685.778 357.782 686.1 363.623C686.433 365.787 685.934 367.998 684.704 369.81C683.473 371.622 681.602 372.901 679.467 373.389C674.067 375.056 670.5 376.423 665.933 378.189C662.393 379.609 658.665 380.507 654.867 380.856C653.195 380.756 651.552 380.385 650 379.756C647.448 378.95 644.963 377.947 642.567 376.756C639.592 375.058 636.303 373.98 632.9 373.589C632.019 373.407 631.129 373.273 630.233 373.189C626.785 373.187 623.436 374.342 620.722 376.47C618.009 378.597 616.088 381.574 615.267 384.923L614.433 387.923C614.1 388.872 613.699 389.797 613.233 390.689C612.8 391.423 612.3 392.023 610.467 392.023C594.262 388.674 579.025 381.7 565.9 371.623C564.582 370.368 563.774 368.67 563.633 366.856C563.533 366.089 563.533 365.123 563.5 364.523L564.1 360.323C564.167 356.186 562.793 352.155 560.215 348.92C557.637 345.685 554.014 343.447 549.967 342.589C544.835 341.506 539.611 340.926 534.367 340.856L530.067 340.723C521.747 340.77 513.436 341.248 505.167 342.156C498.92 342.832 492.917 344.955 487.633 348.356L485.067 349.656L480.867 350.989L478.533 351.056C476.547 350.246 474.63 349.276 472.8 348.156L469.167 345.989C468.459 345.505 467.698 345.102 466.9 344.789C464.622 343.302 462.156 342.125 459.567 341.289C458.063 340.785 456.486 340.537 454.9 340.556C450.914 340.549 447.085 342.105 444.233 344.889C442.642 346.311 441.171 347.86 439.833 349.523L436.5 353.256C434.525 355.32 432.322 357.154 429.933 358.723C420.408 364.009 412.993 372.413 408.933 382.523C408.041 385.953 406.051 388.996 403.267 391.189C401.846 392.152 400.312 392.936 398.7 393.523L391.967 395.889C376.063 404.17 363.226 417.322 355.333 433.423C352.532 438.601 350.329 444.08 348.767 449.756C347.888 453.771 347.518 457.882 347.667 461.989C347.765 471.36 344.228 480.404 337.8 487.223C335.241 489.413 333.483 492.391 332.8 495.689C332.279 498.468 332.133 501.305 332.367 504.123C332.923 509.958 334.853 515.578 338 520.523C339.579 522.812 341.438 524.894 343.533 526.723L350.2 532.989C354.73 536.933 358.211 541.938 360.333 547.556C363.364 559.064 369.745 569.413 378.667 577.289C387.566 585.803 399.178 590.913 411.467 591.723C416.034 591.513 420.585 591.045 425.1 590.323L429.8 589.556C434.533 588.889 439.7 588.123 445.067 587.556C452.091 586.564 459.173 586.03 466.267 585.956H466.667V554.689L466.267 554.656C457.757 554.726 449.262 555.349 440.833 556.523C436.567 556.989 431.567 557.689 426.967 558.356L420.1 559.423C416.733 559.889 413.567 560.356 411.333 560.423C406.568 559.266 402.217 556.808 398.767 553.323C394.599 549.324 391.671 544.209 390.333 538.589C386.757 527.91 380.515 518.319 372.2 510.723L364.967 503.889C373.985 491.762 378.891 477.069 378.967 461.956C378.845 460.274 378.934 458.583 379.233 456.923C383.428 444.263 391.512 433.251 402.333 425.456L409.067 423.123C413.953 421.337 418.556 418.856 422.733 415.756C430.201 409.888 435.71 401.89 438.533 392.823C439.233 391.089 439.633 390.123 447.733 384.523C451.536 382.035 455.047 379.128 458.2 375.856C461.217 377.629 464.371 379.156 467.633 380.423L473.3 382.556L498.167 381.889L501.7 376.323L503.1 375.656C504.509 374.752 506.005 373.992 507.567 373.389C515.05 372.564 522.571 372.119 530.1 372.056L532.767 372.189C533.961 380.016 537.547 387.281 543.033 392.989C561.079 408.457 582.914 418.846 606.3 423.089L608.4 423.356H628.167L638.567 408.989L640.833 409.723C645.364 411.32 650.129 412.153 654.933 412.189H656.733C656.733 412.189 663.367 411.323 665.4 410.956C666.374 416.637 667.755 422.24 669.533 427.723C673.112 440.165 678.588 451.982 685.767 462.756C686.2 463.689 686.7 465.023 687.333 466.756L689.167 472.756C699.976 478.122 708.469 487.231 713.067 498.389C711.1 504.656 708.467 510.589 706.133 516.656L706.267 516.923C705.167 519.789 704.267 522.723 703.1 525.556C702.333 527.389 701.5 529.223 700.7 531.023L700.467 531.556L699.8 532.889C696.776 539.754 693.519 546.514 690.033 553.156L686.467 559.689C685.733 560.989 684.933 562.189 684.167 563.456V563.523C679.661 571.348 674.857 578.998 669.767 586.456C668.033 588.956 666.133 591.289 664.333 593.723L687.167 616.589C734.44 554.315 760.022 478.274 760 400.089V399.256C760 394.489 759.667 389.789 759.367 385.123L759.2 383.956C758.9 377.756 758.833 371.489 758.233 365.356L758.3 365.223L758.2 364.723C756.983 352.02 755.091 339.391 752.533 326.889C751.533 321.889 749.967 317.123 748.733 312.223C747 305.223 745.367 298.156 743.2 291.323C741 284.323 738.267 277.556 735.667 270.756C733.933 266.289 732.367 261.756 730.5 257.389C727.257 250.051 723.766 242.825 720.033 235.723C718.233 232.189 716.5 228.656 714.567 225.223C708.77 214.8 702.451 204.676 695.633 194.889C690.744 187.889 685.633 181.067 680.3 174.423C678.133 171.723 675.867 169.089 673.633 166.456C668.104 159.942 662.345 153.627 656.367 147.523C653.867 144.989 651.233 142.623 648.667 140.156C642.571 134.213 636.267 128.487 629.767 122.989C627.167 120.823 624.367 118.923 621.733 116.823C615.333 111.823 609.133 106.689 602.4 102.089C602.19 101.979 601.966 101.901 601.733 101.856C560.935 74.2812 514.886 55.4213 466.467 46.4559L466.333 46.2226C460.167 45.0893 454.267 44.5226 448.3 43.6893C443.967 43.1226 439.667 42.2893 435.3 41.8559C423.574 40.611 411.792 39.9657 400 39.9226C397.333 39.9226 394.767 40.0893 392.133 40.2559L390.067 40.5893C349.844 41.6548 310.088 49.4865 272.467 63.7559C271.841 63.8963 271.218 64.0519 270.6 64.2226L266.667 65.6559C264.734 66.3089 262.841 67.0769 261 67.9559C251.667 71.8559 242.667 76.2893 233.833 80.9226L233.333 80.8893C232.667 81.2226 232.033 81.7226 231.333 82.0893C219.608 88.288 208.235 95.1318 197.267 102.589C195.2 104.023 193.3 105.623 191.267 107.089C182.533 113.323 174.067 119.856 165.933 126.823C162.5 129.756 159.267 132.856 155.933 135.923C149.489 141.9 143.267 148.089 137.267 154.489C133.86 158.034 130.548 161.669 127.333 165.389C121.433 172.223 115.9 179.389 110.5 186.656C108.533 189.323 106.233 191.723 104.367 194.423C104.233 194.589 104.367 194.723 104.367 194.856C71.896 241.606 51.0519 295.43 43.5667 351.856L43.4 352.056C43.2667 352.989 43.2334 353.756 43.1334 354.723C42.4667 360.023 41.9 365.356 41.4667 370.723C40.5667 380.723 39.9667 390.223 39.9667 399.256V400.089C39.8696 467.032 58.4656 532.672 93.6603 589.616C128.855 646.56 179.25 692.546 239.17 722.395C299.089 752.244 366.152 764.77 432.806 758.561C499.46 752.353 563.057 727.657 616.433 687.256L593.633 664.423ZM126.533 577.589C136.2 583.723 142.933 588.389 147.7 591.989C144.92 594.292 142.404 596.897 140.2 599.756L136.633 594.956C132.636 589.663 128.801 584.249 125.133 578.723C124.4 577.589 123.767 576.423 123.067 575.323L126.533 577.589ZM417.5 72.8226L415.033 76.7559H412.7L407.733 76.4559C404.633 76.1212 401.518 75.9321 398.4 75.8893L397.033 75.8559C397.967 74.6559 398.833 73.3226 399.7 71.9559H400C405.9 71.9559 411.667 72.5226 417.5 72.8226ZM673.733 308.756C671.653 308.494 669.562 308.327 667.467 308.256C666.695 307.108 665.872 305.996 665 304.923L660.933 299.956L653.133 295.256C653.133 295.256 623.133 316.156 623.433 308.589C623.733 301.023 631.6 295.523 624.633 286.823C620.094 281.641 615.276 276.712 610.2 272.056C605.66 267.993 600.8 264.303 595.667 261.023L558.4 239.023L552.7 259.489C546.863 256.952 540.565 255.647 534.2 255.656C530.203 255.68 526.221 256.161 522.333 257.089C527.951 253.009 533.075 248.288 537.6 243.023C539.834 240.212 542.286 237.582 544.933 235.156C551.432 237.449 558.275 238.611 565.167 238.589C574.612 239.589 584.135 237.647 592.434 233.029C600.733 228.411 607.404 221.342 611.533 212.789C615.681 205.524 618.275 197.477 619.153 189.158C620.031 180.838 619.173 172.427 616.633 164.456C614.609 157.556 610.817 151.305 605.633 146.323H607.733C644.836 176.657 674.83 214.764 695.599 257.954C716.368 301.145 727.406 348.367 727.933 396.289C725.614 392.392 723.041 388.651 720.233 385.089L714.933 378.723C716.618 373.879 717.464 368.784 717.433 363.656C717.113 353.364 714.625 343.255 710.133 333.989C706.896 326.898 701.807 320.812 695.401 316.371C688.995 311.93 681.509 309.299 673.733 308.756ZM720.467 467.823C719.297 463.895 718.074 459.984 716.8 456.089C713.067 445.856 711.2 444.256 710.867 443.956C705.793 436.04 701.928 427.412 699.4 418.356C697.956 414.045 696.885 409.617 696.2 405.123C707.302 421.011 715.808 438.564 721.4 457.123C721.533 458.323 722.033 459.589 722.267 460.856C721.767 463.523 721.333 466.189 720.767 468.856L720.467 467.823ZM460.4 201.823C459.131 199.841 458.314 197.603 458.009 195.27C457.704 192.936 457.917 190.564 458.633 188.323C459.3 186.689 460.067 185.056 460.767 183.556C461.828 181.308 463.398 179.339 465.354 177.806C467.31 176.272 469.597 175.216 472.033 174.723L475.033 174.323C478.748 174.344 482.327 175.719 485.1 178.189C489.091 181.67 492.073 186.16 493.733 191.189C494.489 193.558 494.661 196.074 494.233 198.523C497.33 199.578 500.045 201.529 502.033 204.128C504.02 206.727 505.192 209.857 505.4 213.123C505.482 216.788 504.613 220.413 502.878 223.643C501.143 226.874 498.601 229.6 495.5 231.556C493.927 232.332 492.187 232.71 490.433 232.656C486.51 232.537 482.727 231.171 479.633 228.756C477.332 226.904 475.548 224.488 474.456 221.742C473.364 218.997 473 216.016 473.4 213.089C473.461 212.153 473.549 211.22 473.667 210.289L473.5 210.256C470.866 209.791 468.35 208.806 466.101 207.358C463.852 205.91 461.914 204.028 460.4 201.823ZM778.467 754.956L754.9 778.523L533.333 556.989V666.756H500V500.089H666.667V533.423H556.9L778.467 754.956Z" fill="black" fill-opacity="0.1"/>
    </g>
    <defs>
        <clipPath id="clip0_148_105">
            <rect width="800" height="800" fill="white" transform="translate(0 0.0893555)"/>
        </clipPath>
    </defs>
</svg>
