<svg width="75" height="41" viewBox="0 0 75 41" fill="none" xmlns="http://www.w3.org/2000/svg">
<circle cx="20.0625" cy="20.0892" r="20" fill="#D9D9D9"/>
<circle cx="20.0625" cy="20.0892" r="19.5" stroke="black" stroke-opacity="0.3"/>
<circle cx="20.0625" cy="20.0892" r="17.8333" stroke="white"/>
<path d="M15.2926 11.2426C15.2557 11.0921 15.1974 10.96 15.1179 10.8463C15.0384 10.7299 14.9389 10.6318 14.8196 10.5523C14.7031 10.4699 14.5668 10.4088 14.4105 10.3691C14.2571 10.3264 14.0881 10.3051 13.9034 10.3051C13.5057 10.3051 13.1662 10.4003 12.8849 10.5907C12.6065 10.781 12.3935 11.0551 12.2457 11.4131C12.1009 11.7711 12.0284 12.2029 12.0284 12.7086C12.0284 13.2199 12.098 13.6574 12.2372 14.0211C12.3764 14.3847 12.5838 14.6631 12.8594 14.8563C13.1349 15.0495 13.4773 15.1461 13.8864 15.1461C14.2472 15.1461 14.5469 15.0935 14.7855 14.9884C15.027 14.8833 15.2074 14.7341 15.3267 14.5409C15.446 14.3478 15.5057 14.1205 15.5057 13.8591L15.9148 13.9017H13.9205V12.2142H17.7898V13.4245C17.7898 14.2199 17.6207 14.9003 17.2827 15.4657C16.9474 16.0282 16.4844 16.46 15.8935 16.7611C15.3054 17.0594 14.6307 17.2086 13.8693 17.2086C13.0199 17.2086 12.2741 17.0282 11.6321 16.6674C10.9901 16.3066 10.4886 15.7924 10.1278 15.1247C9.76989 14.4571 9.59091 13.6631 9.59091 12.7426C9.59091 12.0211 9.70028 11.3818 9.91903 10.825C10.1406 10.2682 10.4474 9.79804 10.8395 9.41452C11.2315 9.02815 11.6847 8.73696 12.1989 8.54094C12.7131 8.34207 13.2642 8.24264 13.8523 8.24264C14.3693 8.24264 14.8494 8.31651 15.2926 8.46423C15.7386 8.60912 16.1321 8.81651 16.473 9.08639C16.8168 9.35344 17.0938 9.6702 17.304 10.0367C17.5142 10.4032 17.642 10.8051 17.6875 11.2426H15.2926ZM20.7525 17.1915C20.3349 17.1915 19.9656 17.1233 19.6445 16.987C19.3263 16.8478 19.0763 16.6375 18.8945 16.3563C18.7127 16.075 18.6218 15.7171 18.6218 15.2824C18.6218 14.9245 18.6829 14.6191 18.805 14.3662C18.9272 14.1105 19.0977 13.9017 19.3164 13.7398C19.5352 13.5779 19.7894 13.4543 20.0792 13.3691C20.3718 13.2838 20.6871 13.2284 21.0252 13.2029C21.3917 13.1745 21.6857 13.1404 21.9073 13.1006C22.1317 13.058 22.2937 12.9997 22.3931 12.9259C22.4925 12.8492 22.5423 12.7483 22.5423 12.6233V12.6063C22.5423 12.4358 22.4769 12.3051 22.3462 12.2142C22.2156 12.1233 22.0479 12.0779 21.8434 12.0779C21.619 12.0779 21.4357 12.1276 21.2937 12.227C21.1545 12.3236 21.0707 12.4728 21.0423 12.6745H18.8775C18.9059 12.2767 19.0323 11.9103 19.2567 11.575C19.484 11.237 19.815 10.9671 20.2496 10.7654C20.6843 10.5608 21.2269 10.4586 21.8775 10.4586C22.3462 10.4586 22.7667 10.5139 23.1388 10.6247C23.511 10.7327 23.8278 10.8847 24.0891 11.0807C24.3505 11.2739 24.5494 11.5012 24.6857 11.7625C24.8249 12.0211 24.8945 12.3023 24.8945 12.6063V17.0892H22.6957V16.1688H22.6445C22.5138 16.4131 22.3548 16.6105 22.1673 16.7611C21.9826 16.9117 21.771 17.0211 21.5323 17.0892C21.2965 17.1574 21.0366 17.1915 20.7525 17.1915ZM21.5195 15.7086C21.6985 15.7086 21.8661 15.6716 22.0224 15.5978C22.1815 15.5239 22.3107 15.4174 22.4102 15.2782C22.5096 15.1389 22.5593 14.9699 22.5593 14.7711V14.2256C22.4968 14.2512 22.43 14.2753 22.359 14.298C22.2908 14.3208 22.217 14.3421 22.1374 14.362C22.0607 14.3818 21.9783 14.4003 21.8903 14.4174C21.805 14.4344 21.7156 14.45 21.6218 14.4642C21.44 14.4926 21.2908 14.5395 21.1744 14.6049C21.0607 14.6674 20.9755 14.7455 20.9187 14.8392C20.8647 14.9301 20.8377 15.0324 20.8377 15.1461C20.8377 15.3279 20.9016 15.4671 21.0295 15.5637C21.1573 15.6603 21.3207 15.7086 21.5195 15.7086ZM28.3707 8.36196V17.0892H26.0185V8.36196H28.3707ZM31.3931 17.1915C30.9755 17.1915 30.6062 17.1233 30.2852 16.987C29.967 16.8478 29.717 16.6375 29.5352 16.3563C29.3533 16.075 29.2624 15.7171 29.2624 15.2824C29.2624 14.9245 29.3235 14.6191 29.4457 14.3662C29.5678 14.1105 29.7383 13.9017 29.957 13.7398C30.1758 13.5779 30.43 13.4543 30.7198 13.3691C31.0124 13.2838 31.3278 13.2284 31.6658 13.2029C32.0323 13.1745 32.3263 13.1404 32.5479 13.1006C32.7724 13.058 32.9343 12.9997 33.0337 12.9259C33.1332 12.8492 33.1829 12.7483 33.1829 12.6233V12.6063C33.1829 12.4358 33.1175 12.3051 32.9869 12.2142C32.8562 12.1233 32.6886 12.0779 32.484 12.0779C32.2596 12.0779 32.0763 12.1276 31.9343 12.227C31.7951 12.3236 31.7113 12.4728 31.6829 12.6745H29.5181C29.5465 12.2767 29.6729 11.9103 29.8974 11.575C30.1246 11.237 30.4556 10.9671 30.8903 10.7654C31.3249 10.5608 31.8675 10.4586 32.5181 10.4586C32.9869 10.4586 33.4073 10.5139 33.7795 10.6247C34.1516 10.7327 34.4684 10.8847 34.7298 11.0807C34.9911 11.2739 35.19 11.5012 35.3263 11.7625C35.4656 12.0211 35.5352 12.3023 35.5352 12.6063V17.0892H33.3363V16.1688H33.2852C33.1545 16.4131 32.9954 16.6105 32.8079 16.7611C32.6232 16.9117 32.4116 17.0211 32.1729 17.0892C31.9371 17.1574 31.6772 17.1915 31.3931 17.1915ZM32.1602 15.7086C32.3391 15.7086 32.5067 15.6716 32.663 15.5978C32.8221 15.5239 32.9513 15.4174 33.0508 15.2782C33.1502 15.1389 33.1999 14.9699 33.1999 14.7711V14.2256C33.1374 14.2512 33.0707 14.2753 32.9996 14.298C32.9315 14.3208 32.8576 14.3421 32.7781 14.362C32.7013 14.3818 32.619 14.4003 32.5309 14.4174C32.4457 14.4344 32.3562 14.45 32.2624 14.4642C32.0806 14.4926 31.9315 14.5395 31.815 14.6049C31.7013 14.6674 31.6161 14.7455 31.5593 14.8392C31.5053 14.9301 31.4783 15.0324 31.4783 15.1461C31.4783 15.3279 31.5423 15.4671 31.6701 15.5637C31.7979 15.6603 31.9613 15.7086 32.1602 15.7086ZM9.625 32.0892V23.362H15.9148V25.2711H11.9943V26.7711H15.5909V28.6801H11.9943V30.1801H15.8977V32.0892H9.625ZM19.4933 32.1745C19.0273 32.1745 18.5984 32.0523 18.2063 31.808C17.8171 31.5637 17.5046 31.1929 17.2688 30.6958C17.0359 30.1986 16.9194 29.5722 16.9194 28.8165C16.9194 28.0267 17.0415 27.3847 17.2859 26.8904C17.533 26.3961 17.8512 26.0338 18.2404 25.8037C18.6325 25.5736 19.0444 25.4586 19.4762 25.4586C19.8001 25.4586 20.0842 25.5154 20.3285 25.629C20.5728 25.7398 20.7773 25.8889 20.9421 26.0764C21.1069 26.2611 21.2319 26.4642 21.3171 26.6858H21.3512V23.362H23.7035V32.0892H21.3683V31.0154H21.3171C21.2262 31.237 21.0955 31.4358 20.9251 31.612C20.7575 31.7853 20.5529 31.923 20.3114 32.0253C20.0728 32.1247 19.8001 32.1745 19.4933 32.1745ZM20.3626 30.3676C20.5785 30.3676 20.7631 30.3051 20.9165 30.1801C21.0728 30.0523 21.1921 29.8733 21.2745 29.6432C21.3597 29.4103 21.4023 29.1347 21.4023 28.8165C21.4023 28.4926 21.3597 28.2157 21.2745 27.9855C21.1921 27.7526 21.0728 27.575 20.9165 27.4529C20.7631 27.3279 20.5785 27.2654 20.3626 27.2654C20.1467 27.2654 19.962 27.3279 19.8086 27.4529C19.658 27.575 19.5415 27.7526 19.4592 27.9855C19.3796 28.2157 19.3398 28.4926 19.3398 28.8165C19.3398 29.1404 19.3796 29.4188 19.4592 29.6517C19.5415 29.8818 19.658 30.0594 19.8086 30.1844C19.962 30.3066 20.1467 30.3676 20.3626 30.3676ZM29.1026 29.2256V25.5438H31.4549V32.0892H29.2219V30.8449H29.1538C29.0117 31.2625 28.7631 31.5892 28.408 31.825C28.0529 32.058 27.631 32.1745 27.1424 32.1745C26.685 32.1745 26.2844 32.0693 25.9407 31.8591C25.5998 31.6489 25.3342 31.3591 25.1438 30.9898C24.9563 30.6205 24.8612 30.1972 24.8583 29.7199V25.5438H27.2106V29.2256C27.2134 29.5495 27.2958 29.8037 27.4577 29.9884C27.6225 30.173 27.8526 30.2654 28.1481 30.2654C28.3441 30.2654 28.5131 30.2242 28.6552 30.1418C28.8001 30.0566 28.9109 29.9372 28.9876 29.7838C29.0671 29.6276 29.1055 29.4415 29.1026 29.2256ZM35.8047 32.2086C35.0945 32.2086 34.4865 32.0679 33.9808 31.7867C33.4751 31.5026 33.0874 31.1077 32.8175 30.602C32.5476 30.0935 32.4126 29.504 32.4126 28.8336C32.4126 28.1631 32.5476 27.575 32.8175 27.0693C33.0874 26.5608 33.4751 26.1659 33.9808 25.8847C34.4865 25.6006 35.0945 25.4586 35.8047 25.4586C36.4467 25.4586 37.0021 25.575 37.4709 25.808C37.9425 26.0381 38.3075 26.3648 38.5661 26.7881C38.8246 27.2086 38.9553 27.7029 38.9581 28.2711H36.7763C36.745 27.9273 36.6456 27.6659 36.478 27.487C36.3132 27.3051 36.1001 27.2142 35.8388 27.2142C35.6342 27.2142 35.4553 27.2739 35.3018 27.3932C35.1484 27.5097 35.0291 27.6872 34.9439 27.9259C34.8587 28.1617 34.8161 28.4586 34.8161 28.8165C34.8161 29.1745 34.8587 29.4728 34.9439 29.7114C35.0291 29.9472 35.1484 30.1247 35.3018 30.2441C35.4553 30.3605 35.6342 30.4188 35.8388 30.4188C36.0121 30.4188 36.1655 30.379 36.299 30.2995C36.4325 30.2171 36.5405 30.0978 36.6229 29.9415C36.7081 29.7824 36.7592 29.5892 36.7763 29.362H38.9581C38.9496 29.9387 38.8175 30.4415 38.5618 30.8705C38.3061 31.2966 37.9439 31.6262 37.4751 31.8591C37.0092 32.0921 36.4524 32.2086 35.8047 32.2086ZM41.7525 32.1915C41.3349 32.1915 40.9656 32.1233 40.6445 31.987C40.3263 31.8478 40.0763 31.6375 39.8945 31.3563C39.7127 31.075 39.6218 30.7171 39.6218 30.2824C39.6218 29.9245 39.6829 29.6191 39.805 29.3662C39.9272 29.1105 40.0977 28.9017 40.3164 28.7398C40.5352 28.5779 40.7894 28.4543 41.0792 28.3691C41.3718 28.2838 41.6871 28.2284 42.0252 28.2029C42.3917 28.1745 42.6857 28.1404 42.9073 28.1006C43.1317 28.058 43.2937 27.9997 43.3931 27.9259C43.4925 27.8492 43.5423 27.7483 43.5423 27.6233V27.6063C43.5423 27.4358 43.4769 27.3051 43.3462 27.2142C43.2156 27.1233 43.0479 27.0779 42.8434 27.0779C42.619 27.0779 42.4357 27.1276 42.2937 27.227C42.1545 27.3236 42.0707 27.4728 42.0423 27.6745H39.8775C39.9059 27.2767 40.0323 26.9103 40.2567 26.575C40.484 26.237 40.815 25.9671 41.2496 25.7654C41.6843 25.5608 42.2269 25.4586 42.8775 25.4586C43.3462 25.4586 43.7667 25.5139 44.1388 25.6247C44.511 25.7327 44.8278 25.8847 45.0891 26.0807C45.3505 26.2739 45.5494 26.5012 45.6857 26.7625C45.8249 27.0211 45.8945 27.3023 45.8945 27.6063V32.0892H43.6957V31.1688H43.6445C43.5138 31.4131 43.3548 31.6105 43.1673 31.7611C42.9826 31.9117 42.771 32.0211 42.5323 32.0892C42.2965 32.1574 42.0366 32.1915 41.7525 32.1915ZM42.5195 30.7086C42.6985 30.7086 42.8661 30.6716 43.0224 30.5978C43.1815 30.5239 43.3107 30.4174 43.4102 30.2782C43.5096 30.1389 43.5593 29.9699 43.5593 29.7711V29.2256C43.4968 29.2512 43.43 29.2753 43.359 29.298C43.2908 29.3208 43.217 29.3421 43.1374 29.362C43.0607 29.3818 42.9783 29.4003 42.8903 29.4174C42.805 29.4344 42.7156 29.45 42.6218 29.4642C42.44 29.4926 42.2908 29.5395 42.1744 29.6049C42.0607 29.6674 41.9755 29.7455 41.9187 29.8392C41.8647 29.9301 41.8377 30.0324 41.8377 30.1461C41.8377 30.3279 41.9016 30.4671 42.0295 30.5637C42.1573 30.6603 42.3207 30.7086 42.5195 30.7086ZM50.9219 25.5438V27.2483H46.6094V25.5438H50.9219ZM47.4446 23.9756H49.7969V29.9841C49.7969 30.075 49.8125 30.1517 49.8438 30.2142C49.875 30.2739 49.9233 30.3193 49.9886 30.3506C50.054 30.379 50.1378 30.3932 50.2401 30.3932C50.3111 30.3932 50.3935 30.3847 50.4872 30.3676C50.5838 30.3506 50.6548 30.3364 50.7003 30.325L51.0412 31.9784C50.9361 32.0097 50.7855 32.048 50.5895 32.0935C50.3963 32.1389 50.1662 32.1688 49.8991 32.183C49.3594 32.2114 48.9063 32.156 48.5398 32.0168C48.1733 31.8747 47.8977 31.6517 47.7131 31.3478C47.5284 31.0438 47.4389 30.6631 47.4446 30.2057V23.9756ZM51.8817 32.0892V25.5438H54.234V32.0892H51.8817ZM53.0579 24.862C52.7397 24.862 52.467 24.7568 52.2397 24.5466C52.0124 24.3364 51.8988 24.0836 51.8988 23.7881C51.8988 23.4926 52.0124 23.2398 52.2397 23.0296C52.467 22.8193 52.7397 22.7142 53.0579 22.7142C53.3789 22.7142 53.6516 22.8193 53.8761 23.0296C54.1033 23.2398 54.217 23.4926 54.217 23.7881C54.217 24.0836 54.1033 24.3364 53.8761 24.5466C53.6516 24.7568 53.3789 24.862 53.0579 24.862ZM58.5859 32.2086C57.8757 32.2086 57.2678 32.0679 56.7621 31.7867C56.2564 31.5026 55.8686 31.1077 55.5987 30.602C55.3288 30.0935 55.1939 29.504 55.1939 28.8336C55.1939 28.1631 55.3288 27.575 55.5987 27.0693C55.8686 26.5608 56.2564 26.1659 56.7621 25.8847C57.2678 25.6006 57.8757 25.4586 58.5859 25.4586C59.2962 25.4586 59.9041 25.6006 60.4098 25.8847C60.9155 26.1659 61.3033 26.5608 61.5732 27.0693C61.843 27.575 61.978 28.1631 61.978 28.8336C61.978 29.504 61.843 30.0935 61.5732 30.602C61.3033 31.1077 60.9155 31.5026 60.4098 31.7867C59.9041 32.0679 59.2962 32.2086 58.5859 32.2086ZM58.603 30.4699C58.8018 30.4699 58.9737 30.4032 59.1186 30.2696C59.2635 30.1361 59.3757 29.9458 59.4553 29.6986C59.5348 29.4514 59.5746 29.1574 59.5746 28.8165C59.5746 28.4728 59.5348 28.1787 59.4553 27.9344C59.3757 27.6872 59.2635 27.4969 59.1186 27.3634C58.9737 27.2299 58.8018 27.1631 58.603 27.1631C58.3928 27.1631 58.2124 27.2299 58.0618 27.3634C57.9112 27.4969 57.7962 27.6872 57.7166 27.9344C57.6371 28.1787 57.5973 28.4728 57.5973 28.8165C57.5973 29.1574 57.6371 29.4514 57.7166 29.6986C57.7962 29.9458 57.9112 30.1361 58.0618 30.2696C58.2124 30.4032 58.3928 30.4699 58.603 30.4699ZM65.2848 28.4074V32.0892H62.9325V25.5438H65.1655V26.7881H65.2337C65.3757 26.3733 65.6257 26.048 65.9837 25.8122C66.3445 25.5764 66.7649 25.4586 67.245 25.4586C67.7081 25.4586 68.1101 25.5651 68.451 25.7782C68.7947 25.9884 69.0604 26.2782 69.2479 26.6475C69.4382 27.0168 69.532 27.4387 69.5291 27.9131V32.0892H67.1768V28.4074C67.1797 28.0836 67.0973 27.8293 66.9297 27.6446C66.7649 27.46 66.5348 27.3676 66.2393 27.3676C66.0462 27.3676 65.8771 27.4103 65.7322 27.4955C65.5902 27.5779 65.4808 27.6972 65.4041 27.8534C65.3274 28.0068 65.2876 28.1915 65.2848 28.4074ZM71.9688 32.2256C71.6392 32.2256 71.3565 32.1105 71.1207 31.8804C70.8878 31.6475 70.7727 31.3648 70.7756 31.0324C70.7727 30.7086 70.8878 30.4316 71.1207 30.2014C71.3565 29.9713 71.6392 29.8563 71.9688 29.8563C72.2812 29.8563 72.5568 29.9713 72.7955 30.2014C73.0369 30.4316 73.1591 30.7086 73.1619 31.0324C73.1591 31.254 73.1009 31.4557 72.9872 31.6375C72.8764 31.8165 72.7315 31.96 72.5526 32.0679C72.3736 32.173 72.179 32.2256 71.9688 32.2256Z" fill="black"/>
</svg>
