<svg width="100" height="100" viewBox="0 0 100 100" fill="none" xmlns="http://www.w3.org/2000/svg">
<g clipPath="url(#clip0_229_1719)">
<path d="M100 90.625C100 95.7812 95.7812 100 90.625 100H9.375C4.21875 100 0 95.7812 0 90.625V9.375C0 4.21875 4.21875 0 9.375 0H90.625C95.7812 0 100 4.21875 100 9.375V90.625Z" fill="#0C6667"/>
<path d="M100 90.625V9.375C100 4.21875 95.7812 0 90.625 0H62.5437C58.6093 5.22813 56.25 11.7063 56.25 18.75V22.1094C54.4218 22.6937 53.0906 24.3875 53.0906 26.4094C53.0906 28.4313 54.4218 30.125 56.25 30.7094V40.9156C56.7625 40.7406 57.3062 40.625 57.8781 40.625H71.925C76.6531 40.625 81.1625 44.5781 81.1625 49.9375C81.1625 49.9594 81.1562 49.9781 81.1562 50C81.1187 55.55 76.2781 59.375 71.925 59.375H57.8781C57.5374 59.375 57.2031 59.3406 56.8781 59.275C59.1125 70.4406 67.4312 79.4625 78.1218 82.8844V100H90.6218C95.7812 100 100 95.7812 100 90.625ZM75.7374 25C74.2687 25 73.0812 23.8094 73.0812 22.3438C73.0812 20.475 71.5625 18.9594 69.6937 18.9594C67.825 18.9594 66.3062 20.4781 66.3062 22.3438C66.3062 23.8094 65.1187 25 63.65 25C62.1812 25 60.9937 23.8094 60.9937 22.3438C60.9937 17.5469 64.8937 13.6438 69.6906 13.6438C74.4875 13.6438 78.3874 17.5469 78.3874 22.3438C78.3937 23.8094 77.2062 25 75.7374 25Z" fill="#F8AD89"/>
<path d="M46.825 52.4531L52.925 48.9313L46.875 45.4375V15.7688C46.875 8.45625 42.1688 2.3 35.6406 0H9.375C4.21875 0 0 4.21875 0 9.375V68.75H30.0938C39.1937 68.75 46.5625 61.4906 46.825 52.4531Z" fill="#F4D6B0"/>
<path d="M69.6969 13.6438C64.9 13.6438 61 17.5469 61 22.3438C61 23.8094 62.1875 25 63.6563 25C65.125 25 66.3125 23.8094 66.3125 22.3438C66.3125 20.475 67.8313 18.9594 69.7 18.9594C71.5688 18.9594 73.0875 20.4782 73.0875 22.3438C73.0875 23.8094 74.275 25 75.7438 25C77.2125 25 78.4 23.8094 78.4 22.3438C78.3937 17.5469 74.4937 13.6438 69.6969 13.6438Z" fill="#01A59C"/>
<path d="M81.1561 50.0001C81.1186 55.5563 76.2843 59.3751 71.9249 59.3751H57.878C57.5374 59.3751 57.203 59.3407 56.878 59.2751C54.5655 58.8095 52.8218 56.7688 52.8218 54.3188C52.8218 52.4782 53.8155 50.8845 55.2843 50.0001C53.8155 49.1157 52.8218 47.5219 52.8218 45.6813C52.8218 43.4626 54.2624 41.597 56.2499 40.9188C56.7624 40.7407 57.3061 40.6251 57.878 40.6251H71.9249C76.6749 40.6251 81.1624 44.6032 81.1624 49.9376C81.1624 49.9594 81.1561 49.9782 81.1561 50.0001ZM6.15613 15.8376C4.19676 17.5282 3.97488 20.4907 5.66551 22.4501C7.34988 24.4095 10.3124 24.6313 12.278 22.9407C13.1999 22.1438 15.778 21.1657 17.6343 20.6313C23.5718 21.2782 23.0905 30.122 17.1155 30.122H12.4999V45.3126C12.4999 47.9032 14.5249 50.0001 17.1155 50.0001C19.7061 50.0001 21.803 47.9032 21.803 45.3126V38.7001C27.2968 36.7626 31.2499 31.5126 31.2499 25.3626C31.2499 13.7438 17.6749 5.90945 6.15613 15.8376ZM17.1874 53.1251C14.5999 53.1251 12.4999 55.2251 12.4999 57.8126C12.4999 60.4001 14.5999 62.5001 17.1874 62.5001C19.7749 62.5001 21.8749 60.4001 21.8749 57.8126C21.8749 55.2251 19.7749 53.1251 17.1874 53.1251Z" fill="#E54D2E"/>
</g>
<defs>
<clipPath id="clip0_229_1719">
<rect width="100" height="100" fill="white"/>
</clipPath>
</defs>
</svg>
